<svg xmlns="http://www.w3.org/2000/svg" xmlns:xlink="http://www.w3.org/1999/xlink" width="1920" zoomAndPan="magnify" viewBox="0 0 1440 809.999993" height="1080" preserveAspectRatio="xMidYMid meet" version="1.0"><defs><clipPath id="d8dbb5bfd8"><path d="M 100.5 458.25 L 331.5 458.25 L 331.5 531.75 L 100.5 531.75 Z M 100.5 458.25 " clip-rule="nonzero"/></clipPath><clipPath id="f2a11154bb"><path d="M 244.5 266.25 L 475.5 266.25 L 475.5 339.75 L 244.5 339.75 Z M 244.5 266.25 " clip-rule="nonzero"/></clipPath><clipPath id="a6f9f2d141"><path d="M 88.5 470.25 L 319.5 470.25 L 319.5 543.75 L 88.5 543.75 Z M 88.5 470.25 " clip-rule="nonzero"/></clipPath><clipPath id="1051ebcb62"><path d="M 304.5 458.25 L 535.5 458.25 L 535.5 531.75 L 304.5 531.75 Z M 304.5 458.25 " clip-rule="nonzero"/></clipPath><clipPath id="95ec257d63"><path d="M 292.5 470.25 L 523.5 470.25 L 523.5 543.75 L 292.5 543.75 Z M 292.5 470.25 " clip-rule="nonzero"/></clipPath><clipPath id="56e1822d74"><path d="M 508.5 458.25 L 739.5 458.25 L 739.5 531.75 L 508.5 531.75 Z M 508.5 458.25 " clip-rule="nonzero"/></clipPath><clipPath id="f319a5f8e4"><path d="M 496.5 470.25 L 727.5 470.25 L 727.5 543.75 L 496.5 543.75 Z M 496.5 470.25 " clip-rule="nonzero"/></clipPath><clipPath id="e87cef4364"><path d="M 712.5 458.25 L 943.5 458.25 L 943.5 531.75 L 712.5 531.75 Z M 712.5 458.25 " clip-rule="nonzero"/></clipPath><clipPath id="3a10ea2361"><path d="M 700.5 470.25 L 931.5 470.25 L 931.5 543.75 L 700.5 543.75 Z M 700.5 470.25 " clip-rule="nonzero"/></clipPath><clipPath id="bdb03cac0f"><path d="M 916.5 458.25 L 1147.5 458.25 L 1147.5 531.75 L 916.5 531.75 Z M 916.5 458.25 " clip-rule="nonzero"/></clipPath><clipPath id="82f30ffa66"><path d="M 904.5 470.25 L 1135.5 470.25 L 1135.5 543.75 L 904.5 543.75 Z M 904.5 470.25 " clip-rule="nonzero"/></clipPath><clipPath id="db82165034"><path d="M 1120.5 458.25 L 1351.5 458.25 L 1351.5 531.75 L 1120.5 531.75 Z M 1120.5 458.25 " clip-rule="nonzero"/></clipPath><clipPath id="d1d03de457"><path d="M 1108.5 470.25 L 1339.5 470.25 L 1339.5 543.75 L 1108.5 543.75 Z M 1108.5 470.25 " clip-rule="nonzero"/></clipPath></defs><rect x="-144" width="1728" fill="#ffffff" y="-80.999999" height="971.999992" fill-opacity="1"/><rect x="-144" width="1728" fill="#ffffff" y="-80.999999" height="971.999992" fill-opacity="1"/><g clip-path="url(#d8dbb5bfd8)"><path fill="#202f44" d="M 308.597656 531.609375 L 100.5 531.609375 L 123.402344 458.390625 L 331.5 458.390625 Z M 308.597656 531.609375 " fill-opacity="1" fill-rule="nonzero"/></g><g clip-path="url(#f2a11154bb)"><path fill="#ffffff" d="M 452.597656 339.609375 L 244.5 339.609375 L 267.402344 266.390625 L 475.5 266.390625 Z M 452.597656 339.609375 " fill-opacity="1" fill-rule="nonzero"/></g><g clip-path="url(#a6f9f2d141)"><path fill="#d0ff4b" d="M 296.597656 543.609375 L 88.5 543.609375 L 111.402344 470.390625 L 319.5 470.390625 Z M 296.597656 543.609375 " fill-opacity="1" fill-rule="nonzero"/></g><g clip-path="url(#1051ebcb62)"><path fill="#202f44" d="M 512.597656 531.609375 L 304.5 531.609375 L 327.402344 458.390625 L 535.5 458.390625 Z M 512.597656 531.609375 " fill-opacity="1" fill-rule="nonzero"/></g><g clip-path="url(#95ec257d63)"><path fill="#d0ff4b" d="M 500.597656 543.609375 L 292.5 543.609375 L 315.402344 470.390625 L 523.5 470.390625 Z M 500.597656 543.609375 " fill-opacity="1" fill-rule="nonzero"/></g><g clip-path="url(#56e1822d74)"><path fill="#202f44" d="M 716.597656 531.609375 L 508.5 531.609375 L 531.402344 458.390625 L 739.5 458.390625 Z M 716.597656 531.609375 " fill-opacity="1" fill-rule="nonzero"/></g><g clip-path="url(#f319a5f8e4)"><path fill="#d0ff4b" d="M 704.597656 543.609375 L 496.5 543.609375 L 519.402344 470.390625 L 727.5 470.390625 Z M 704.597656 543.609375 " fill-opacity="1" fill-rule="nonzero"/></g><g clip-path="url(#e87cef4364)"><path fill="#202f44" d="M 920.597656 531.609375 L 712.5 531.609375 L 735.402344 458.390625 L 943.5 458.390625 Z M 920.597656 531.609375 " fill-opacity="1" fill-rule="nonzero"/></g><g clip-path="url(#3a10ea2361)"><path fill="#d0ff4b" d="M 908.597656 543.609375 L 700.5 543.609375 L 723.402344 470.390625 L 931.5 470.390625 Z M 908.597656 543.609375 " fill-opacity="1" fill-rule="nonzero"/></g><g clip-path="url(#bdb03cac0f)"><path fill="#202f44" d="M 1124.597656 531.609375 L 916.5 531.609375 L 939.402344 458.390625 L 1147.5 458.390625 Z M 1124.597656 531.609375 " fill-opacity="1" fill-rule="nonzero"/></g><g clip-path="url(#82f30ffa66)"><path fill="#d0ff4b" d="M 1112.597656 543.609375 L 904.5 543.609375 L 927.402344 470.390625 L 1135.5 470.390625 Z M 1112.597656 543.609375 " fill-opacity="1" fill-rule="nonzero"/></g><g clip-path="url(#db82165034)"><path fill="#202f44" d="M 1328.597656 531.609375 L 1120.5 531.609375 L 1143.402344 458.390625 L 1351.5 458.390625 Z M 1328.597656 531.609375 " fill-opacity="1" fill-rule="nonzero"/></g><g clip-path="url(#d1d03de457)"><path fill="#d0ff4b" d="M 1316.597656 543.609375 L 1108.5 543.609375 L 1131.402344 470.390625 L 1339.5 470.390625 Z M 1316.597656 543.609375 " fill-opacity="1" fill-rule="nonzero"/></g></svg>